<?xml version="1.0" standalone="no"?>
<!DOCTYPE svg PUBLIC "-//W3C//DTD SVG 20010904//EN"
 "http://www.w3.org/TR/2001/REC-SVG-20010904/DTD/svg10.dtd">
<svg version="1.0" xmlns="http://www.w3.org/2000/svg"
 width="1108.000000pt" height="1108.000000pt" viewBox="0 0 1108.000000 1108.000000"
 preserveAspectRatio="xMidYMid meet">
<metadata>
Created by potrace 1.14, written by Peter Selinger 2001-2017
</metadata>
<g transform="translate(0.000000,1108.000000) scale(0.100000,-0.100000)"
fill="#000000" stroke="none">
<path d="M3113 11068 c-6 -7 -13 -20 -16 -28 -4 -12 -6 -12 -6 1 -1 9 -8 20
-17 23 -26 10 -29 7 -8 -10 10 -8 13 -13 7 -9 -7 3 -13 0 -13 -7 0 -10 -2 -10
-9 0 -4 8 -12 14 -16 14 -4 0 -12 -6 -17 -14 -8 -10 -9 -10 -5 2 2 8 11 14 18
12 11 -3 12 -1 1 10 -10 10 -15 10 -20 1 -5 -7 -18 -11 -29 -9 -15 3 -20 0
-17 -8 3 -7 -2 -13 -11 -13 -9 0 -14 6 -11 13 3 7 -2 11 -12 9 -9 -2 -21 -4
-25 -4 -5 -1 -6 -5 -3 -9 2 -4 -4 -8 -15 -8 -25 0 -24 13 2 21 11 4 18 9 16
12 -3 2 -15 -1 -27 -7 -15 -8 -25 -9 -32 -2 -14 14 -38 4 -39 -17 0 -11 -2
-12 -6 -3 -4 10 -8 10 -21 0 -12 -10 -14 -10 -8 0 4 6 2 12 -3 12 -6 0 -11 -5
-11 -11 0 -6 -7 -3 -16 5 -14 14 -34 14 -34 0 0 -3 5 -2 10 1 6 3 10 1 10 -4
0 -17 -18 -13 -29 7 -9 15 -10 15 -11 0 0 -16 -10 -17 -43 -3 -11 4 -23 3 -30
-4 -8 -8 -16 -6 -29 6 -18 16 -18 16 -12 -3 7 -19 7 -19 -15 0 -14 13 -20 15
-16 5 4 -10 -3 -14 -29 -14 -19 0 -32 4 -29 9 4 5 0 6 -8 0 -20 -12 -40 -14
-33 -3 3 5 0 9 -5 9 -6 0 -11 -3 -11 -8 0 -4 -13 -7 -29 -7 -16 -1 -27 3 -24
8 3 5 -4 4 -14 -2 -11 -6 -23 -7 -27 -4 -14 15 -38 11 -32 -4 5 -12 4 -13 -7
-5 -8 7 -17 9 -20 5 -4 -3 -7 -1 -7 6 0 7 -5 9 -10 6 -6 -4 -7 -12 -3 -18 4
-7 0 -6 -10 2 -15 12 -17 11 -17 -5 -1 -16 -3 -15 -16 6 -8 14 -13 17 -10 7 4
-12 2 -17 -6 -15 -7 3 -19 -1 -26 -9 -9 -8 -19 -10 -30 -4 -18 9 -45 4 -38 -8
3 -4 -4 -8 -15 -8 -13 -1 -17 2 -12 10 4 7 0 6 -10 -2 -14 -11 -17 -11 -17 0
0 8 -6 5 -15 -7 -8 -10 -15 -14 -14 -9 4 27 -3 27 -17 0 -8 -16 -12 -22 -9
-12 2 9 0 17 -5 17 -6 0 -10 -6 -10 -12 0 -9 -4 -8 -10 2 -8 13 -10 13 -10 -2
0 -9 -5 -20 -12 -24 -6 -4 -8 -3 -5 3 4 6 0 14 -9 17 -8 3 -13 2 -10 -3 8 -12
-12 -18 -56 -16 -35 2 -49 -7 -30 -18 4 -2 2 -3 -4 -1 -7 1 -22 -5 -35 -13
-12 -9 -19 -11 -15 -5 4 7 2 12 -3 12 -6 0 -11 -5 -11 -11 0 -5 -4 -8 -9 -4
-5 3 -12 1 -16 -5 -4 -7 -12 -7 -25 0 -13 7 -21 7 -26 -2 -5 -7 -3 -8 6 -3 9
5 11 4 6 -3 -4 -7 -16 -12 -26 -12 -10 0 -21 -6 -23 -12 -4 -10 -6 -10 -6 0
-1 10 -5 9 -17 -3 -13 -13 -19 -13 -32 -3 -12 10 -14 10 -8 1 4 -8 2 -13 -4
-13 -6 0 -9 -4 -5 -9 3 -5 0 -13 -6 -17 -8 -4 -9 -3 -5 4 4 7 3 12 -3 12 -5 0
-13 -5 -17 -11 -4 -8 -9 -7 -15 2 -7 11 -9 11 -9 1 0 -24 -26 -42 -39 -29 -9
9 -11 7 -5 -8 5 -16 4 -18 -6 -8 -14 13 -40 7 -40 -9 0 -6 8 -4 18 3 15 13 16
12 3 -4 -10 -12 -17 -15 -25 -7 -7 7 -18 3 -35 -13 -13 -12 -21 -16 -16 -8 6
10 4 12 -4 7 -7 -5 -10 -15 -7 -23 3 -8 1 -11 -4 -8 -6 3 -10 1 -10 -5 0 -6
-4 -8 -10 -5 -5 3 -10 0 -10 -7 0 -9 -3 -9 -10 2 -9 13 -10 13 -10 0 -1 -8
-17 -25 -36 -37 -19 -13 -32 -18 -29 -13 3 6 -1 7 -10 4 -12 -5 -13 -9 -3 -21
10 -12 9 -14 -8 -11 -10 1 -18 -2 -17 -8 1 -6 -9 -10 -22 -8 -14 1 -28 -3 -32
-8 -3 -7 -1 -8 5 -4 7 4 12 1 12 -9 0 -12 -4 -14 -17 -7 -13 8 -22 4 -37 -16
-12 -15 -22 -30 -22 -34 -1 -5 -2 -11 -3 -15 -1 -5 -6 -1 -11 7 -8 13 -10 12
-11 -5 -1 -11 -1 -24 0 -28 1 -4 -8 -3 -20 4 -15 8 -19 8 -15 0 4 -6 2 -11 -4
-11 -7 0 -10 -7 -7 -14 4 -10 1 -13 -9 -9 -9 3 -14 -1 -14 -12 0 -11 -5 -15
-15 -11 -9 3 -15 0 -15 -9 0 -8 -7 -15 -15 -15 -8 0 -15 -7 -15 -16 0 -10 -6
-14 -14 -11 -10 4 -14 0 -11 -13 3 -14 -2 -17 -20 -15 -14 1 -22 -2 -19 -7 4
-5 -3 -16 -15 -24 -12 -8 -21 -21 -21 -29 0 -8 -5 -17 -12 -21 -7 -5 -8 -3 -3
6 5 9 4 11 -3 6 -7 -4 -12 -14 -12 -22 0 -8 -4 -13 -9 -10 -5 3 -14 -8 -21
-24 -7 -16 -17 -28 -24 -27 -6 1 -10 -6 -10 -15 1 -10 -4 -14 -12 -11 -9 3
-14 -1 -14 -12 0 -10 -4 -13 -13 -9 -8 5 -7 2 2 -9 12 -15 12 -17 -3 -11 -11
4 -16 2 -14 -6 2 -7 -3 -15 -11 -18 -9 -3 -11 0 -6 8 5 9 4 11 -3 6 -9 -5 -9
-13 0 -29 10 -20 10 -21 -6 -8 -9 8 -16 10 -15 5 4 -22 -2 -34 -18 -34 -14 0
-15 -2 -4 -9 11 -7 9 -10 -8 -16 -13 -4 -20 -9 -18 -12 3 -2 -3 -13 -14 -24
-11 -11 -17 -24 -14 -28 2 -5 -2 -14 -10 -21 -13 -11 -15 -10 -9 6 5 18 5 18
-6 0 -10 -15 -9 -20 1 -27 11 -7 11 -9 -2 -9 -25 0 -41 -24 -26 -39 9 -10 8
-11 -8 -5 -18 7 -19 6 -6 -9 12 -15 12 -17 -4 -11 -14 6 -16 4 -10 -6 6 -10 4
-12 -9 -7 -9 4 -15 3 -11 -2 3 -5 2 -11 -2 -14 -5 -2 -2 -2 6 0 11 3 12 1 1
-12 -7 -8 -9 -15 -5 -15 5 0 0 -9 -11 -21 -10 -12 -18 -23 -16 -26 2 -3 0 -8
-4 -11 -4 -4 -4 -1 0 6 4 6 3 12 -1 12 -12 0 -34 -61 -26 -73 4 -6 0 -8 -9 -4
-12 4 -14 1 -11 -14 3 -10 0 -19 -6 -19 -6 0 -11 -5 -11 -11 0 -5 6 -7 12 -3
7 4 3 -3 -10 -15 -12 -13 -19 -27 -15 -34 5 -9 3 -9 -8 0 -12 10 -15 8 -15 -7
0 -10 5 -16 11 -12 5 3 4 -1 -2 -10 -7 -8 -10 -18 -6 -21 3 -4 1 -7 -6 -7 -7
0 -9 -5 -5 -11 4 -8 -1 -9 -17 -5 -21 6 -22 6 -6 -4 18 -11 18 -12 0 -27 -16
-13 -16 -14 -1 -9 12 3 15 1 11 -10 -3 -7 -9 -14 -14 -14 -5 0 -9 -5 -9 -11 0
-5 6 -7 13 -3 9 6 9 5 0 -7 -7 -9 -13 -30 -15 -47 -1 -20 -8 -32 -16 -32 -12
0 -12 3 -2 15 7 9 11 17 9 20 -3 2 -10 -5 -17 -16 -10 -16 -10 -20 3 -25 14
-6 13 -8 -2 -21 -17 -14 -17 -14 2 -9 20 6 20 6 1 -9 -12 -9 -15 -15 -7 -15
11 0 11 -3 0 -17 -12 -14 -12 -16 1 -9 8 4 4 -2 -10 -15 l-25 -22 25 8 c21 7
23 6 13 -7 -8 -10 -9 -18 -3 -26 7 -9 7 -9 -2 -2 -17 14 -25 12 -25 -5 0 -8 5
-11 10 -8 6 3 7 1 3 -5 -3 -5 0 -13 6 -16 7 -3 0 -3 -17 0 l-30 5 25 -15 25
-16 -23 -6 c-18 -5 -20 -9 -10 -15 11 -8 11 -10 -1 -18 -11 -7 -11 -9 0 -14
12 -5 12 -7 0 -15 -11 -8 -10 -12 5 -21 18 -10 18 -10 -1 -11 -17 0 -17 -2 -5
-10 13 -9 13 -10 0 -10 -13 0 -13 -1 0 -10 13 -9 13 -10 0 -10 -13 0 -13 -1 0
-11 11 -8 12 -12 3 -16 -7 -2 -13 -9 -13 -14 0 -6 6 -7 13 -3 8 5 8 2 -2 -9
-7 -9 -9 -17 -4 -17 5 0 10 -7 10 -15 0 -11 -4 -12 -14 -3 -11 8 -12 7 -7 -6
4 -9 1 -16 -6 -16 -9 0 -10 -3 -1 -13 6 -8 8 -17 4 -21 -4 -4 1 -4 12 0 16 6
18 5 8 -7 -7 -7 -13 -20 -13 -28 0 -14 1 -14 10 -1 6 9 10 10 10 3 0 -6 -5
-15 -11 -19 -8 -4 -7 -9 2 -16 11 -8 10 -9 -3 -5 -19 7 -33 -19 -16 -29 7 -5
8 -2 3 7 -6 11 -5 12 5 2 19 -17 21 -40 4 -40 -11 0 -11 3 -1 16 11 14 10 14
-5 2 -10 -7 -15 -17 -12 -22 3 -5 -1 -9 -8 -9 -8 0 -9 -3 -3 -8 14 -10 17 -32
4 -32 -5 0 -7 -4 -4 -10 3 -5 11 -10 16 -10 6 0 7 5 4 10 -3 6 -2 10 4 10 5 0
9 -9 8 -20 -1 -15 -6 -19 -22 -15 -18 5 -18 5 -2 -5 9 -6 17 -22 17 -35 0 -14
5 -25 12 -25 6 0 8 -3 5 -6 -4 -4 -13 -1 -22 6 -13 11 -14 10 -9 -5 6 -14 4
-16 -6 -10 -9 5 -11 4 -6 -4 4 -6 11 -9 16 -6 4 3 14 -3 21 -12 12 -14 12 -16
0 -9 -10 7 -12 3 -6 -13 3 -12 2 -21 -3 -21 -6 0 -9 11 -8 24 2 17 -1 23 -11
19 -10 -4 -11 -9 -4 -16 7 -7 7 -16 0 -28 -7 -14 -6 -17 4 -13 17 6 19 -25 4
-44 -6 -8 -12 -29 -13 -48 -1 -37 8 -38 13 -1 2 12 4 27 5 33 1 6 7 11 15 11
9 0 10 -4 2 -13 -6 -7 -7 -19 -3 -25 4 -8 3 -9 -4 -5 -8 5 -11 0 -10 -11 2
-32 -2 -54 -10 -49 -4 2 -7 -27 -8 -64 0 -66 1 -68 21 -58 20 11 20 11 0 -11
-15 -18 -20 -37 -20 -93 0 -38 2 -71 6 -74 4 -2 5 10 4 26 -1 17 2 33 8 37 5
3 7 1 3 -5 -3 -6 -2 -14 4 -17 8 -5 7 -11 -1 -21 -6 -8 -8 -14 -3 -14 5 0 2
-6 -6 -13 -12 -9 -16 -35 -15 -124 0 -61 3 -109 7 -106 5 2 8 -1 8 -6 0 -6 -4
-11 -9 -11 -12 0 -9 -60 4 -61 5 -1 17 -1 25 0 11 1 11 -1 -3 -9 -9 -6 -20 -9
-25 -7 -4 3 -7 -30 -7 -73 -1 -75 6 -91 28 -65 5 6 7 4 4 -5 -2 -8 -10 -15
-18 -15 -12 0 -14 -49 -15 -307 0 -211 3 -308 10 -308 8 0 8 -2 0 -8 -5 -4
-10 -33 -10 -65 0 -47 3 -56 16 -52 11 4 10 1 -2 -9 -21 -15 -24 -66 -5 -66 9
0 8 -3 -2 -9 -9 -6 -10 -11 -2 -15 6 -4 11 -13 11 -19 0 -7 -4 -6 -10 3 -8 12
-10 9 -10 -12 0 -16 6 -28 13 -28 8 0 9 -3 1 -8 -14 -9 -14 -105 0 -114 8 -6
8 -8 0 -8 -15 0 -15 -150 0 -150 6 0 5 -4 -3 -9 -9 -6 -10 -11 -2 -15 6 -4 11
-13 11 -19 0 -7 -4 -6 -10 3 -8 11 -10 6 -8 -20 3 -29 7 -35 25 -34 13 1 20
-2 18 -7 -3 -4 -14 -6 -25 -4 -11 2 -20 0 -20 -6 0 -5 6 -9 13 -9 9 0 9 -2 -1
-9 -15 -9 -15 -17 0 -45 7 -13 7 -16 -1 -12 -6 4 -11 2 -11 -3 0 -6 6 -11 13
-11 9 0 8 -3 -2 -9 -9 -6 -10 -11 -2 -15 6 -4 11 -13 11 -19 0 -7 -4 -6 -10 3
-8 11 -10 7 -8 -18 2 -24 6 -31 18 -27 11 4 10 1 -3 -9 -19 -14 -23 -36 -7
-36 6 0 10 -8 10 -17 0 -16 -2 -16 -11 -3 -8 12 -10 11 -7 -5 2 -11 8 -20 15
-20 6 0 15 -3 19 -7 3 -4 -3 -6 -15 -3 -11 2 -21 0 -21 -6 0 -5 6 -9 13 -9 8
0 7 -4 -3 -10 -13 -9 -13 -11 0 -20 8 -5 10 -10 4 -10 -7 0 -11 -17 -11 -45 1
-28 6 -44 13 -41 6 2 11 -2 11 -9 0 -7 -6 -11 -12 -9 -6 3 -12 -2 -12 -11 0
-9 6 -14 13 -11 8 3 11 0 7 -9 -3 -8 -9 -12 -14 -9 -5 3 -9 0 -9 -5 0 -6 6
-11 13 -11 9 0 9 -2 -1 -9 -18 -11 -18 -12 -3 -40 8 -14 9 -21 2 -17 -6 4 -11
3 -11 -3 0 -5 6 -12 13 -14 9 -4 9 -6 0 -6 -7 -1 -13 -6 -13 -12 0 -6 8 -8 17
-5 17 6 17 5 0 -8 -19 -15 -21 -75 -2 -88 6 -5 6 -8 -2 -8 -7 0 -13 -5 -13
-11 0 -6 8 -8 17 -5 16 5 16 5 2 -7 -19 -15 -23 -118 -5 -129 8 -6 7 -8 -1 -8
-7 0 -13 -5 -13 -11 0 -6 8 -8 18 -5 15 5 15 5 2 -6 -20 -16 -26 -88 -8 -88 8
0 9 -3 3 -8 -14 -10 -15 -72 -1 -72 7 0 6 -4 -3 -9 -9 -6 -10 -11 -2 -15 6 -4
11 -13 11 -19 0 -7 -4 -6 -10 3 -8 11 -10 7 -8 -18 2 -24 6 -31 18 -27 13 4
13 4 0 -8 -17 -14 -24 -37 -11 -37 5 0 11 -10 14 -23 6 -21 6 -21 -9 -3 -13
19 -14 18 -12 -10 1 -16 7 -32 13 -36 6 -5 5 -8 -3 -8 -10 0 -10 -5 2 -22 9
-12 16 -27 16 -33 -1 -5 -7 1 -14 14 -12 21 -13 19 -12 -33 1 -53 9 -72 19
-43 2 6 4 -7 3 -30 0 -22 -4 -39 -8 -37 -4 2 -5 13 -3 24 2 11 0 20 -6 20 -5
0 -8 -18 -7 -40 1 -22 5 -40 10 -40 5 0 6 5 3 10 -3 6 -1 10 4 10 16 0 13 -20
-4 -26 -18 -7 -20 -35 -3 -53 7 -8 8 -11 2 -8 -14 8 -14 -255 0 -265 7 -5 7
-8 1 -8 -12 0 -14 -100 -2 -118 5 -7 14 -10 20 -6 7 3 2 -3 -10 -14 -22 -19
-30 -82 -11 -82 5 0 6 5 3 10 -3 6 -2 10 3 10 5 0 8 -20 8 -44 -1 -24 -4 -42
-8 -40 -3 2 -5 15 -3 29 1 14 -2 25 -6 25 -12 0 -8 -52 5 -69 8 -11 8 -13 -1
-7 -7 4 -13 2 -13 -3 0 -6 5 -11 10 -11 6 0 10 -5 10 -11 0 -5 -3 -8 -8 -5 -4
2 -7 -40 -7 -95 -1 -89 6 -121 17 -86 3 6 5 -5 5 -25 0 -21 -4 -38 -8 -38 -4
0 -6 9 -4 20 2 11 0 20 -4 20 -4 0 -7 -69 -7 -154 1 -146 2 -154 20 -150 10 2
15 0 12 -4 -4 -4 -13 -7 -19 -7 -9 0 -12 -62 -12 -233 0 -127 3 -232 6 -232
13 0 18 -29 7 -36 -6 -4 -8 -3 -4 4 3 6 3 13 -1 15 -5 3 -8 -118 -8 -268 0
-270 0 -273 20 -263 20 11 20 11 1 -11 -22 -25 -29 -48 -16 -56 5 -3 7 4 5 15
-3 13 0 18 7 14 7 -5 8 -2 3 6 -5 9 -4 11 4 6 7 -5 9 -12 3 -19 -12 -17 -9
-36 8 -47 19 -12 4 -13 -18 -1 -15 8 -17 3 -17 -39 0 -26 2 -47 5 -45 3 1 14
-7 25 -18 l20 -20 -22 12 c-29 15 -29 15 -29 -13 0 -16 4 -22 14 -19 11 5 11
7 0 14 -8 5 -9 9 -2 9 6 0 18 -8 25 -17 7 -10 9 -15 5 -11 -11 10 -38 -11 -30
-23 3 -5 0 -9 -7 -9 -8 0 -8 -4 -2 -12 13 -16 13 -48 1 -48 -5 0 -6 -5 -2 -11
5 -8 9 -8 14 1 4 7 13 9 20 5 10 -6 9 -11 -5 -22 -17 -12 -18 -13 -1 -13 9 0
14 -5 11 -10 -4 -6 -12 -8 -18 -4 -7 3 -3 -2 7 -10 11 -9 14 -16 8 -16 -7 0
-12 -5 -12 -11 0 -5 4 -8 8 -5 4 2 8 -4 8 -14 0 -10 -4 -16 -8 -14 -4 3 -8 0
-8 -5 0 -6 8 -11 18 -12 14 0 14 -2 -3 -9 -11 -5 -14 -9 -6 -9 11 -1 11 -4 1
-16 -9 -11 -9 -15 -1 -15 9 0 9 -5 0 -21 -6 -12 -7 -19 -1 -15 5 3 13 -1 16
-10 3 -8 2 -12 -3 -9 -5 3 -12 1 -16 -5 -3 -5 -1 -10 4 -10 6 0 11 -10 11 -22
0 -53 5 -86 12 -81 5 2 8 -2 8 -11 0 -8 -3 -16 -7 -19 -5 -2 -3 -2 4 -1 7 2
15 -1 18 -6 4 -6 1 -10 -6 -10 -10 0 -10 -3 -1 -12 7 -7 8 -17 1 -30 -7 -13
-6 -18 2 -18 8 0 7 -5 -2 -17 -12 -14 -12 -16 0 -8 11 6 13 4 8 -8 -3 -9 -2
-19 3 -22 5 -3 6 -13 3 -23 -6 -15 -5 -15 10 -3 10 8 20 11 24 7 3 -3 2 -6 -4
-6 -5 0 -10 -7 -10 -15 0 -8 5 -15 11 -15 6 0 4 -5 -4 -10 -12 -8 -12 -10 -1
-10 10 0 11 -3 2 -14 -8 -10 -9 -16 -1 -21 6 -3 8 -11 5 -16 -4 -5 0 -9 8 -9
23 0 39 -24 24 -39 -9 -9 -9 -14 3 -21 12 -8 13 -12 2 -19 -11 -7 -10 -9 3
-15 10 -3 13 -11 9 -18 -6 -10 -4 -10 8 0 13 10 18 10 24 1 4 -8 3 -9 -4 -5
-7 4 -12 1 -12 -8 0 -9 6 -16 13 -16 8 0 7 -4 -3 -10 -9 -6 -10 -10 -3 -10 6
0 10 -9 8 -20 -2 -13 2 -20 11 -20 9 0 12 5 8 12 -4 8 -3 10 2 5 5 -5 9 -12 9
-15 0 -4 4 -14 10 -22 8 -13 7 -13 -10 0 -17 14 -18 14 -8 -5 6 -11 9 -28 8
-38 -2 -9 0 -15 4 -13 3 2 15 -1 26 -7 25 -15 31 -38 7 -30 -14 5 -14 3 2 -9
10 -8 16 -20 12 -26 -5 -8 -2 -10 9 -6 11 5 14 2 9 -10 -5 -13 -2 -15 12 -9
17 6 17 5 5 -10 -10 -13 -10 -17 -1 -17 7 0 10 -7 7 -15 -4 -8 -1 -17 5 -21 7
-4 8 -3 4 4 -4 7 -2 12 3 12 6 0 11 -9 11 -21 0 -13 4 -18 13 -13 7 5 6 0 -3
-11 -12 -15 -12 -17 -1 -10 11 6 13 4 7 -10 -5 -15 -4 -16 9 -5 9 7 15 9 14 4
-4 -25 2 -45 13 -38 8 5 9 2 5 -9 -3 -9 -1 -19 5 -23 7 -4 8 -3 4 4 -4 7 -5
12 -1 12 3 0 10 -12 15 -26 7 -16 14 -23 22 -18 10 6 10 4 0 -8 -11 -14 -10
-18 7 -30 12 -8 19 -17 16 -20 -3 -3 8 -16 26 -29 50 -39 60 -50 53 -61 -4 -6
-2 -8 3 -5 6 4 13 0 17 -8 3 -8 13 -15 23 -15 15 0 16 -2 3 -10 -11 -7 -11
-10 -2 -10 7 0 11 -4 8 -8 -3 -5 6 -15 19 -22 13 -7 22 -17 19 -22 -3 -4 0 -8
6 -8 6 0 8 -5 4 -12 -5 -8 0 -9 15 -5 19 5 20 3 9 -11 -10 -12 -10 -14 -1 -8
8 4 13 2 13 -4 0 -7 7 -9 16 -6 14 5 15 4 4 -9 -11 -13 -10 -14 6 -8 17 6 17
5 5 -10 -12 -15 -12 -17 4 -10 14 5 17 3 12 -10 -3 -9 -3 -16 1 -16 4 1 15 1
26 0 15 -1 16 -4 6 -16 -11 -13 -10 -14 2 -10 9 4 23 -7 39 -29 18 -26 27 -32
36 -24 11 8 12 7 7 -8 -4 -10 -4 -16 0 -12 9 8 55 -34 49 -44 -2 -5 5 -8 16
-8 11 0 28 -11 39 -25 11 -13 22 -21 26 -18 3 3 6 -1 6 -11 0 -9 8 -20 18 -23
9 -4 23 -15 30 -25 12 -16 16 -17 30 -6 12 10 14 10 8 1 -4 -8 -2 -13 4 -13 6
0 8 -5 4 -12 -5 -8 0 -7 11 2 11 9 16 10 11 3 -4 -8 -2 -13 7 -13 8 0 17 -9
20 -21 5 -18 8 -19 27 -9 13 7 20 8 16 2 -3 -5 1 -13 10 -16 8 -3 12 -11 8
-17 -5 -8 -3 -9 5 -5 7 5 19 0 27 -10 9 -11 13 -13 9 -6 -3 6 -1 12 4 12 6 0
11 -7 11 -15 0 -8 9 -15 19 -15 11 0 22 -6 24 -12 4 -10 6 -10 6 0 1 10 4 10
15 0 8 -7 12 -16 9 -21 -2 -4 -1 -7 4 -6 22 4 34 -2 27 -13 -6 -10 -4 -10 7 0
15 14 33 16 25 3 -3 -5 1 -12 10 -15 8 -3 12 -2 9 3 -3 5 0 13 7 17 7 4 10 4
6 0 -9 -10 33 -51 54 -52 36 -3 39 -4 32 -16 -5 -9 -2 -9 9 1 15 12 17 11 17
-10 0 -18 2 -21 9 -10 8 13 12 13 27 0 16 -12 17 -12 9 1 -6 12 -5 13 6 3 7
-7 22 -13 32 -13 15 0 17 -3 8 -14 -9 -11 -6 -12 15 -8 21 4 25 2 19 -9 -7
-11 -6 -12 7 -2 8 7 18 10 22 6 3 -4 17 -8 29 -10 17 -2 19 -1 7 7 -12 7 -10
9 7 7 12 0 19 -5 17 -9 -3 -4 2 -8 11 -8 10 0 14 5 10 13 -4 6 3 1 15 -13 13
-14 29 -24 37 -22 8 2 20 -2 28 -8 9 -8 17 -7 29 5 14 15 16 15 16 1 0 -17 20
-18 32 -1 5 6 8 5 8 -4 0 -10 3 -11 14 -2 11 9 16 9 22 0 4 -8 3 -9 -4 -5 -7
4 -12 2 -12 -4 0 -7 7 -9 16 -6 9 3 18 6 20 6 3 0 2 5 -2 12 -4 7 -3 8 4 4 9
-5 9 -13 2 -26 -10 -20 34 -20 3330 -20 2221 0 3339 3 3335 10 -4 6 2 7 17 1
29 -10 49 -4 42 14 -3 7 0 16 7 21 8 4 10 3 5 -4 -10 -16 7 -15 23 1 11 9 13
9 7 0 -9 -16 10 -17 20 -2 4 8 9 7 15 -2 7 -11 9 -11 9 1 0 13 1 13 10 0 9
-13 10 -13 10 0 0 13 1 13 10 0 8 -12 10 -12 10 -1 0 10 3 11 14 2 11 -9 17
-8 29 3 11 11 17 12 26 3 9 -9 11 -7 5 8 -4 11 -4 17 1 13 4 -4 14 0 22 10 8
9 12 11 8 5 -3 -7 -1 -13 4 -13 6 0 11 4 11 8 0 12 54 9 62 -3 5 -6 8 -5 8 3
0 10 5 10 23 1 20 -11 21 -11 9 4 -12 14 -10 17 12 23 13 3 31 2 38 -2 11 -6
11 -5 0 8 -11 14 -11 16 0 14 7 -1 19 -6 27 -10 10 -7 12 -6 6 4 -6 10 -4 12
9 7 14 -6 17 -3 12 9 -6 15 -4 15 11 3 11 -9 14 -10 9 -1 -4 7 -2 12 4 12 6 0
8 5 4 11 -4 7 1 7 16 -1 18 -10 21 -9 15 1 -6 9 -2 11 13 7 13 -4 20 -2 16 4
-3 5 2 8 12 6 13 -2 18 2 16 14 -2 15 1 16 23 8 23 -9 29 -6 26 12 0 5 4 8 10
8 8 0 7 6 -2 18 -13 16 -13 16 5 2 15 -12 20 -12 24 -2 3 10 7 10 20 0 10 -8
13 -9 9 -1 -4 7 1 14 13 18 11 4 18 11 15 16 -3 5 1 6 9 3 9 -4 16 -1 16 6 0
9 4 9 17 -1 14 -12 16 -12 8 0 -6 11 -4 13 8 8 11 -4 15 -1 12 13 -2 11 1 23
7 26 6 4 8 2 4 -4 -4 -6 1 -10 13 -9 11 0 17 5 15 9 -5 7 10 12 28 9 4 0 4 7
1 17 -3 9 -3 14 2 10 4 -4 15 -2 23 5 13 10 14 9 7 -2 -6 -10 -4 -12 4 -7 7 5
10 14 7 22 -3 8 0 11 10 7 8 -3 22 3 30 13 9 11 13 12 9 4 -4 -8 0 -6 9 4 8
10 13 23 9 29 -3 6 -1 7 5 3 6 -3 26 3 44 15 18 12 24 18 13 15 -20 -6 -20 -6
-1 9 16 12 22 12 28 2 5 -8 8 -7 8 6 0 11 4 15 12 11 8 -5 9 -2 5 10 -4 10 -3
15 3 11 6 -3 10 -1 10 5 0 7 7 9 16 6 15 -6 15 -4 3 11 -8 9 -9 14 -2 10 6 -4
19 0 27 9 9 8 16 13 16 9 0 -3 6 0 14 7 10 9 11 15 2 20 -7 5 -4 8 7 8 10 0
20 7 24 16 3 8 12 13 21 9 12 -5 13 -3 2 10 -11 14 -10 17 8 22 20 5 26 14 24
34 -1 4 7 5 17 2 10 -3 22 1 26 8 6 8 4 10 -6 4 -12 -8 -12 -6 0 8 7 9 19 17
26 17 7 0 12 10 11 23 -1 16 4 21 18 19 11 -2 15 1 11 7 -3 6 -2 11 3 11 6 0
13 7 16 16 6 15 4 15 -11 3 -16 -13 -17 -12 -4 4 8 10 21 15 29 12 12 -4 13
-3 2 10 -11 13 -10 14 4 9 9 -4 16 -2 14 3 -2 5 13 24 32 42 19 19 30 31 23
27 -6 -3 -15 -2 -18 4 -4 6 -3 10 2 9 23 -4 43 2 41 13 -2 7 2 12 9 13 6 0 15
4 20 9 5 5 2 6 -6 1 -9 -5 -12 -3 -9 6 3 8 10 13 16 12 7 -2 9 4 5 14 -5 12
-3 14 8 8 8 -4 11 -5 7 0 -10 10 10 47 22 40 5 -3 12 0 16 6 4 7 3 9 -4 5 -6
-4 -10 1 -9 13 0 11 5 17 9 15 4 -3 8 0 8 6 0 6 4 9 9 5 5 -3 13 0 17 6 4 8 3
9 -4 5 -7 -4 -12 -2 -12 3 0 6 5 11 11 11 5 0 7 5 4 10 -3 6 -1 10 4 10 6 0
10 6 9 13 -2 6 5 11 14 11 10 -1 15 3 12 8 -3 5 2 19 13 30 18 21 18 21 -7 9
-23 -11 -22 -10 4 13 17 14 34 22 39 19 6 -3 7 -1 3 6 -6 9 -12 9 -24 -1 -14
-11 -14 -9 1 8 9 11 14 24 10 29 -5 4 -2 4 6 0 11 -6 13 -4 8 9 -5 13 -3 17 7
13 11 -4 13 -1 9 10 -5 12 -2 15 8 11 10 -4 15 1 15 13 0 14 -3 16 -16 6 -10
-8 -9 -5 3 9 9 11 17 28 17 38 0 9 5 14 10 11 6 -3 10 -1 10 5 0 6 6 8 13 4 6
-4 3 3 -8 15 -12 14 -14 21 -6 19 7 -2 16 3 19 11 3 9 0 11 -9 7 -8 -4 -7 -2
2 6 9 7 14 19 11 27 -3 8 0 11 7 7 6 -4 11 -1 11 8 0 9 6 16 13 16 8 0 7 4 -3
10 -10 6 -11 10 -2 10 7 0 12 13 12 29 0 17 5 33 12 37 6 4 8 3 4 -4 -3 -6 -2
-13 3 -16 11 -7 9 13 -3 33 -6 9 -5 12 1 8 6 -4 14 0 17 9 4 10 2 13 -7 8 -6
-4 -4 1 5 12 17 19 17 21 0 38 -14 14 -14 16 -1 11 9 -3 22 2 30 12 12 16 12
17 -2 6 -13 -10 -16 -10 -16 2 0 8 8 15 17 15 18 0 22 50 5 62 -6 5 -5 8 4 8
11 0 11 3 1 15 -11 13 -10 14 5 9 15 -6 16 -5 5 17 -13 23 -12 23 5 9 17 -14
18 -14 6 9 -11 19 -11 22 0 16 9 -6 11 -3 6 8 -4 12 -1 17 11 17 10 0 13 3 6
8 -14 9 -14 42 0 42 6 0 4 5 -4 10 -10 6 -11 10 -2 10 14 0 12 21 -3 32 -6 5
-5 8 3 8 6 0 12 5 12 11 0 5 -5 7 -11 3 -6 -3 -4 5 6 19 15 24 15 26 0 35 -16
8 -16 10 -1 15 9 4 16 11 16 17 0 6 -4 9 -9 5 -5 -3 -13 0 -17 6 -5 8 -3 9 6
4 10 -6 12 -3 8 13 -4 12 -2 25 3 28 5 3 9 2 8 -3 -3 -17 1 -33 9 -33 4 0 7
24 7 53 0 38 -4 51 -13 49 -8 -1 -11 2 -7 8 3 6 11 8 16 5 14 -9 10 6596 -4
6614 -9 11 -9 13 -1 8 9 -5 11 16 10 75 -1 53 -6 83 -14 86 -7 2 -12 -1 -12
-7 0 -6 -5 -11 -11 -11 -8 0 -8 4 0 14 9 11 10 20 1 35 -9 18 -8 20 7 14 14
-5 15 -3 6 7 -6 7 -9 19 -6 28 4 9 2 13 -4 9 -7 -4 -10 0 -8 10 2 10 4 19 5
21 7 8 5 49 -4 60 -7 9 -6 16 3 22 10 6 8 9 -7 15 -12 3 -21 9 -21 13 3 19 -2
33 -10 28 -11 -7 -9 13 2 32 5 7 3 12 -5 12 -9 0 -9 3 2 10 8 5 10 10 4 10 -7
0 -14 7 -17 14 -4 11 -1 13 11 9 16 -6 16 -5 0 14 -10 11 -18 25 -18 31 0 7
-8 12 -17 12 -15 0 -15 1 2 13 14 11 15 16 5 22 -9 6 -11 4 -5 -5 5 -9 4 -11
-4 -6 -9 6 -9 11 0 22 9 11 7 14 -10 14 -13 0 -19 4 -16 10 4 6 12 8 18 4 7
-3 4 1 -5 9 -20 16 -25 32 -6 21 7 -4 8 -3 4 5 -4 6 -11 9 -16 6 -5 -3 -11 -1
-15 5 -3 5 0 10 7 10 11 0 11 2 0 9 -8 4 -12 14 -10 22 1 8 -8 29 -22 48 -13
19 -19 32 -14 28 6 -3 11 0 11 8 0 8 -3 14 -6 13 -3 0 -13 0 -21 1 -13 1 -13
2 0 11 13 9 13 10 0 11 -8 1 -18 1 -21 1 -3 -1 -6 5 -6 13 0 8 3 12 7 10 4 -2
7 2 7 10 0 8 -4 12 -8 9 -4 -2 -10 5 -14 16 -3 11 -14 20 -23 20 -10 0 -13 3
-7 8 6 4 11 13 13 21 2 11 0 12 -11 3 -12 -10 -14 -8 -12 13 2 14 0 23 -4 21
-4 -3 -13 4 -20 16 -7 11 -8 17 -2 14 6 -4 1 9 -12 28 -12 19 -27 35 -33 36
-7 0 -15 7 -18 16 -6 15 -4 15 11 3 14 -11 13 -9 -2 12 -13 18 -22 23 -27 15
-4 -6 -8 1 -8 17 0 16 -3 26 -7 24 -5 -3 -13 1 -20 8 -10 11 -10 15 0 19 7 4
2 4 -10 2 -19 -3 -21 -1 -13 14 12 22 1 34 -17 18 -11 -8 -12 -7 -7 6 4 10 0
18 -10 22 -9 3 -16 13 -16 21 0 9 -5 11 -12 7 -9 -6 -9 -3 0 9 12 14 11 16 -7
12 -12 -2 -19 0 -16 6 4 5 -2 9 -12 9 -14 0 -15 2 -4 9 11 7 9 10 -8 16 -18 5
-20 9 -10 21 10 12 10 15 -2 12 -8 -2 -18 -7 -22 -13 -5 -5 -6 -1 -3 11 5 14
0 23 -16 30 -13 6 -18 9 -11 8 7 -2 10 3 6 12 -5 13 -17 18 -37 15 -5 -1 -6 6
-2 15 6 15 4 15 -10 3 -16 -13 -16 -12 -6 8 9 16 9 24 0 29 -7 4 -8 3 -4 -4 4
-7 2 -12 -3 -12 -6 0 -11 4 -11 8 0 17 -38 52 -55 52 -12 0 -16 6 -12 19 3 13
0 18 -8 15 -7 -3 -15 2 -19 12 -5 13 -9 14 -22 3 -13 -11 -14 -9 -10 13 3 21
1 25 -15 21 -13 -4 -21 2 -29 22 -7 18 -15 25 -26 21 -8 -3 -12 -2 -9 4 3 6
-2 10 -12 10 -15 0 -16 2 -3 10 13 8 12 10 -3 10 -10 0 -16 4 -12 9 3 6 -4 8
-15 6 -11 -2 -21 0 -21 6 -1 5 -3 14 -4 19 -1 6 -3 12 -4 15 0 3 -10 1 -21 -5
-13 -7 -20 -7 -20 0 0 17 -63 71 -77 65 -8 -2 -12 -1 -9 3 2 4 1 14 -5 22 -6
11 -9 12 -9 2 0 -7 -5 -10 -11 -7 -6 4 -8 13 -5 21 3 7 0 16 -6 20 -6 4 -8 3
-4 -4 11 -19 -17 -19 -37 1 -10 10 -25 16 -33 13 -17 -7 -18 5 -1 24 6 8 2 6
-10 -3 -16 -14 -23 -15 -29 -6 -5 8 -3 10 6 4 8 -5 11 -4 7 2 -4 6 -20 10 -37
9 -25 -2 -27 0 -17 13 10 12 8 14 -11 9 -12 -4 -20 -2 -17 2 3 5 1 11 -5 15
-5 3 -10 0 -10 -7 0 -10 -2 -10 -9 1 -5 7 -13 11 -18 8 -6 -4 -20 5 -33 18
-19 20 -26 22 -43 14 -12 -7 -17 -7 -13 -1 3 5 -1 13 -10 16 -10 4 -13 2 -8
-6 5 -7 3 -8 -5 -4 -7 5 -10 14 -7 22 4 11 2 12 -14 4 -25 -13 -30 -13 -30 5
0 16 -20 16 -32 0 -4 -6 -8 -2 -8 8 0 9 -4 17 -10 17 -5 0 -9 -5 -7 -11 1 -6
-5 -14 -13 -16 -12 -4 -12 -3 -1 5 9 7 10 12 2 16 -6 4 -9 12 -6 17 3 5 -2 6
-11 2 -12 -4 -15 -3 -10 5 5 8 2 10 -10 5 -14 -5 -13 -8 7 -19 30 -16 19 -18
-15 -3 -14 7 -22 17 -19 23 4 6 -1 5 -10 -3 -11 -9 -17 -10 -17 -2 0 6 -5 11
-11 11 -5 0 -7 -6 -3 -12 4 -7 -3 -4 -16 7 -13 11 -20 15 -17 8 13 -21 -21 -8
-43 17 -12 14 -19 19 -15 13 3 -7 2 -13 -2 -13 -5 0 -15 6 -22 13 -11 10 -13
10 -7 0 8 -14 -6 -18 -18 -6 -10 11 -37 12 -30 2 3 -5 0 -9 -5 -9 -6 0 -11 5
-11 11 0 7 -15 10 -39 7 -30 -2 -37 0 -30 8 7 8 6 15 -2 20 -8 4 -9 3 -5 -4 4
-7 1 -12 -9 -12 -9 0 -14 4 -10 9 3 5 1 13 -5 16 -6 4 -10 3 -9 -2 4 -22 -3
-25 -17 -7 -12 14 -14 15 -11 3 4 -13 1 -15 -14 -12 -11 3 -16 10 -12 17 4 7
1 6 -9 -1 -8 -7 -18 -10 -22 -6 -11 11 -46 10 -46 -1 0 -6 -5 -4 -10 4 -8 12
-10 12 -10 1 0 -10 -3 -11 -13 -2 -10 8 -17 7 -27 -2 -10 -9 -11 -9 -6 1 4 6
2 12 -3 12 -6 0 -11 -4 -11 -10 0 -5 -7 -7 -15 -4 -8 4 -12 11 -9 18 3 6 -1 3
-8 -6 -13 -15 -15 -15 -26 0 -10 15 -11 15 -5 -3 6 -18 5 -18 -10 -6 -13 10
-17 10 -17 1 0 -9 -4 -9 -17 1 -15 12 -16 12 -8 -1 7 -12 6 -13 -6 -3 -9 7
-20 8 -28 3 -9 -5 -22 -3 -34 3 -15 9 -21 9 -24 -1 -4 -10 -8 -9 -17 4 -10 13
-15 14 -21 4 -6 -9 -4 -11 5 -5 8 5 11 4 6 -3 -4 -6 -13 -9 -21 -6 -8 4 -13 9
-10 13 2 4 -2 8 -9 8 -9 0 -12 -7 -8 -16 5 -14 3 -14 -11 -2 -12 9 -17 10 -17
2 0 -7 -5 -9 -10 -6 -6 4 -8 10 -6 14 7 11 -53 4 -68 -9 -10 -7 -16 -8 -21 0
-3 5 -13 10 -21 10 -8 0 -12 -5 -9 -11 4 -6 -2 -5 -13 2 -17 10 -23 10 -36 0
-21 -17 -21 -7 0 13 8 9 11 16 5 16 -5 0 -13 -5 -17 -11 -4 -8 -9 -7 -16 2 -6
10 -7 6 -3 -11 5 -21 4 -23 -7 -10 -17 19 -48 22 -48 4 0 -17 -16 -18 -26 -2
-5 7 -3 8 6 3 9 -6 11 -4 5 4 -5 9 -10 10 -18 2 -6 -6 -16 -11 -22 -11 -5 0
-3 5 5 10 9 6 10 10 3 10 -7 0 -17 -8 -22 -17 -6 -10 -11 -13 -11 -7 0 18 -40
25 -40 7 0 -8 -5 -11 -10 -8 -6 4 -8 10 -5 15 3 4 -1 13 -8 19 -10 8 -14 7
-14 -4 0 -8 4 -12 9 -9 4 3 5 -3 1 -12 -4 -11 -8 -13 -11 -6 -5 15 -37 16 -64
1 -13 -7 -18 -7 -14 -1 4 6 -2 10 -14 9 -11 -1 -20 -6 -20 -12 0 -6 -3 -6 -8
1 -8 12 -55 26 -47 14 8 -13 -22 -19 -34 -7 -9 9 -14 9 -20 -2 -7 -11 -9 -11
-13 0 -4 12 -9 12 -27 1 -18 -10 -21 -10 -21 5 0 15 -2 16 -10 3 -8 -12 -10
-12 -11 5 -1 17 -2 16 -9 -5 -4 -14 -8 -19 -9 -13 -1 13 -35 13 -47 0 -4 -4
-13 -2 -21 4 -8 8 -13 8 -13 1 0 -6 -8 -9 -17 -7 -10 1 -17 9 -15 16 2 8 -5 6
-19 -6 -12 -11 -19 -14 -15 -7 7 11 -4 13 -47 11 -35 -2 -62 2 -71 10 -19 16
-21 1 -3 -19 10 -12 9 -12 -4 -2 -9 6 -19 8 -24 4 -4 -4 -4 4 -1 18 5 17 4 21
-2 12 -5 -8 -13 -14 -18 -14 -11 0 -53 -16 -67 -25 -6 -3 -7 -1 -3 5 9 15 -56
16 -70 2 -7 -7 -11 -6 -11 4 0 8 5 14 10 13 5 -1 11 4 13 11 1 7 0 8 -3 2 -2
-5 -9 -8 -13 -5 -5 3 -14 -4 -20 -16 -11 -20 -12 -20 -33 -2 -11 10 -17 12
-12 4 5 -9 4 -12 -3 -7 -6 3 -13 2 -16 -3 -8 -13 -46 -2 -43 13 1 6 7 15 12
19 6 5 4 7 -5 4 -8 -2 -14 -10 -13 -16 4 -13 -23 -15 -32 -1 -3 5 -12 7 -20 4
-8 -4 -12 -11 -8 -17 3 -5 1 -7 -5 -3 -5 3 -12 3 -15 -1 -2 -5 -3 -3 -1 4 4
17 -36 24 -43 8 -4 -12 -10 -11 -31 3 -26 16 -26 16 -13 -1 8 -10 11 -20 7
-24 -3 -3 -6 -1 -6 5 0 7 -7 12 -16 12 -9 0 -12 -5 -8 -12 6 -10 5 -10 -7 -1
-11 9 -19 9 -26 2 -6 -6 -10 -5 -10 5 0 8 8 13 18 11 13 -3 16 1 12 12 -5 12
-7 12 -14 1 -5 -7 -9 -9 -9 -4 0 6 -9 0 -20 -12 -22 -23 -40 -31 -22 -9 8 9 8
17 0 27 -8 12 -9 12 -4 -2 4 -14 0 -18 -20 -18 -17 0 -23 -4 -18 -12 4 -8 3
-10 -2 -5 -12 12 -12 30 1 40 6 5 4 7 -5 4 -8 -2 -15 -9 -15 -15 0 -5 -3 -14
-7 -18 -5 -4 -8 0 -8 10 0 9 -5 14 -10 11 -6 -4 -8 -10 -5 -15 3 -5 0 -12 -6
-16 -8 -4 -9 -3 -5 4 4 7 2 12 -5 12 -8 0 -7 5 2 17 11 13 11 15 1 9 -7 -4
-17 -18 -22 -30 -6 -14 -9 -16 -9 -5 -1 12 -9 14 -31 11 -17 -2 -27 -9 -23
-15 3 -6 1 -7 -5 -3 -6 4 -9 14 -6 24 4 12 -1 10 -15 -7 -12 -13 -21 -19 -21
-14 0 5 -19 9 -41 10 -28 1 -37 -2 -28 -8 8 -5 9 -9 4 -9 -6 0 -17 6 -23 12
-10 10 -15 10 -22 -2 -6 -9 -10 -10 -10 -3 0 7 -16 12 -41 11 -27 0 -37 -3
-28 -9 8 -5 9 -9 3 -9 -5 0 -16 6 -22 12 -10 10 -15 10 -22 -2 -7 -10 -10 -11
-10 -2 0 6 -9 12 -21 12 -13 0 -18 -4 -13 -12 5 -10 4 -10 -6 -1 -7 6 -19 9
-26 6 -9 -3 -14 1 -14 12 0 9 -5 13 -10 10 -6 -4 -8 -10 -5 -15 3 -5 1 -11 -4
-14 -5 -4 -8 4 -7 17 2 13 -2 24 -9 24 -7 0 -10 -9 -8 -21 4 -20 3 -20 -10 -4
-8 10 -17 15 -20 11 -4 -3 -2 -12 4 -20 9 -9 8 -13 0 -13 -6 0 -11 5 -11 11 0
5 -5 7 -11 3 -8 -4 -7 0 1 15 10 20 10 21 -9 9 -11 -6 -18 -15 -16 -18 6 -10
-33 -5 -42 5 -5 4 -2 5 5 1 6 -4 12 -2 12 4 0 7 -8 9 -21 5 -16 -6 -20 -4 -14
6 6 11 5 12 -6 2 -7 -7 -17 -13 -22 -13 -4 0 -5 6 -1 13 5 8 2 8 -9 -2 -18
-15 -23 -26 -7 -16 6 3 7 -1 4 -9 -3 -9 -9 -16 -13 -16 -16 0 -20 14 -9 34 10
20 10 20 -14 -2 -13 -12 -27 -19 -31 -16 -4 4 -13 1 -22 -6 -11 -9 -15 -9 -15
-1 0 7 -5 9 -12 5 -6 -4 -8 -3 -5 3 3 5 20 9 36 8 17 -1 28 2 26 6 -3 4 1 9 7
12 7 2 1 4 -14 3 -14 0 -24 -4 -21 -8 6 -11 -5 -10 -29 3 -15 8 -19 8 -14 0 4
-6 2 -11 -4 -11 -6 0 -8 -4 -5 -10 4 -6 -1 -7 -11 -3 -13 5 -15 3 -9 -7 5 -9
4 -11 -4 -6 -6 4 -9 12 -6 17 4 5 1 9 -5 9 -6 0 -9 4 -6 8 2 4 -4 8 -14 8 -10
0 -17 -3 -14 -7 2 -4 -6 -9 -19 -13 -36 -10 -44 -6 -17 8 l25 14 -27 -1 c-14
-1 -24 -5 -21 -9 2 -5 -1 -8 -7 -8 -6 0 -8 -6 -4 -12 4 -8 3 -10 -2 -5 -5 5
-9 14 -9 20 0 5 -10 11 -22 12 -12 1 -20 -2 -18 -6 10 -16 -47 -19 -76 -3 -17
8 -28 11 -25 5 8 -12 -6 -15 -18 -4 -10 10 -46 11 -40 1 3 -4 0 -8 -6 -8 -6 0
-8 -4 -5 -10 3 -6 -1 -7 -9 -4 -9 3 -16 1 -16 -5 0 -6 -4 -11 -9 -11 -6 0 -8
9 -6 20 2 11 -1 23 -7 26 -7 4 -8 2 -4 -4 4 -7 2 -12 -4 -12 -6 0 -8 -4 -5
-10 3 -6 -1 -7 -10 -4 -8 4 -23 0 -33 -7 -15 -13 -16 -12 -3 4 11 14 12 20 2
30 -7 7 -12 8 -11 2 5 -21 -1 -29 -10 -15 -7 11 -31 15 -99 15 -49 0 -88 -2
-86 -6 3 -3 17 -5 32 -4 28 2 53 -10 53 -26 0 -5 -5 -9 -11 -9 -5 0 -8 4 -4 9
3 5 1 12 -4 15 -5 4 -13 2 -16 -4 -5 -8 -11 -7 -21 1 -8 6 -14 9 -14 5 0 -4
-14 1 -31 10 -17 8 -28 11 -25 5 4 -6 3 -11 -3 -11 -5 0 -12 3 -15 8 -2 4 -28
7 -58 7 -44 -1 -53 -4 -52 -18 1 -12 -2 -15 -10 -8 -18 15 -30 14 -37 -6 -7
-16 -8 -16 -8 -1 -1 12 -6 15 -17 11 -9 -3 -20 0 -24 8 -12 18 -57 20 -57 2 0
-9 4 -10 10 -4 6 6 15 5 23 -4 19 -18 18 -31 -1 -15 -12 10 -18 10 -31 0 -8
-8 -14 -9 -13 -4 6 32 -2 40 -45 40 -41 0 -44 -2 -34 -21 10 -17 9 -18 -4 -8
-8 7 -18 9 -22 5 -4 -4 -6 -1 -4 7 2 9 -7 15 -24 16 -16 1 -28 -2 -28 -7 0 -4
11 -6 24 -4 20 4 23 1 18 -17 -5 -18 -6 -18 -11 -4 -5 15 -9 15 -33 3 -23 -12
-29 -12 -38 -1 -6 8 -17 12 -25 9 -7 -3 -16 0 -21 7 -4 7 -3 10 4 5 6 -3 13
-3 16 2 2 4 -33 7 -80 7 -46 0 -84 -4 -84 -8 0 -5 4 -6 9 -2 6 3 15 -5 21 -17
9 -19 9 -21 -2 -8 -15 18 -26 19 -48 5 -13 -8 -13 -7 -1 8 7 9 10 17 5 18 -5
0 -17 2 -27 4 -9 2 -15 -1 -11 -6 3 -5 11 -6 17 -2 7 3 3 -3 -7 -15 -22 -25
-35 -30 -15 -6 12 15 11 16 -9 10 -14 -5 -22 -3 -22 4 0 6 5 8 10 5 6 -3 10
-2 10 2 0 5 -38 9 -84 8 -46 0 -82 -3 -79 -8 2 -4 9 -4 15 -1 7 4 8 2 4 -4 -7
-11 -36 -6 -36 7 0 4 -146 6 -324 6 -195 0 -322 -4 -318 -9 3 -5 -3 -6 -13 -3
-9 4 -25 2 -33 -5 -13 -11 -15 -10 -10 2 8 23 -84 20 -110 -3 -10 -9 -22 -14
-25 -11 -4 4 -13 1 -21 -5 -23 -19 -38 -4 -25 22 12 22 12 22 -10 3 -21 -19
-21 -19 -43 0 l-22 19 18 -30 c10 -16 13 -24 5 -17 -7 6 -28 12 -47 12 -23 0
-31 4 -27 13 4 6 -1 3 -11 -8 -16 -20 -16 -20 -11 3 3 12 1 20 -4 16 -5 -3 -9
-15 -9 -27 0 -16 -3 -19 -9 -8 -5 7 -14 10 -20 7 -6 -4 -11 -3 -11 3 0 5 8 15
18 20 9 6 12 11 6 11 -6 0 -16 -6 -21 -12z m317 -11 c0 -5 7 -4 15 3 10 9 15
9 15 1 0 -11 -13 -15 -37 -12 -7 1 -13 -4 -13 -11 0 -10 -3 -9 -9 2 -6 8 -8
17 -6 20 6 10 35 8 35 -3z m194 4 c-3 -4 -11 -6 -17 -6 -7 -1 -11 -6 -10 -13
2 -7 -4 -9 -14 -5 -11 4 -13 8 -5 11 7 2 10 7 8 11 -3 4 6 7 19 7 14 0 22 -2
19 -5z m60 -3 c-3 -5 -10 -5 -16 -2 -7 5 -9 1 -5 -9 9 -23 0 -22 -12 1 -8 15
-6 18 14 18 13 0 21 -4 19 -8z m46 1 c0 -3 -9 -9 -19 -12 -13 -3 -18 0 -15 7
5 13 34 18 34 5z m85 -1 c4 -4 -1 -5 -12 -4 -10 2 -23 0 -29 -5 -6 -5 -11 -4
-11 5 0 13 40 16 52 4z m75 2 c0 -5 -4 -10 -10 -10 -5 0 -10 5 -10 10 0 6 5
10 10 10 6 0 10 -4 10 -10z m51 -7 c8 -8 8 -13 0 -18 -6 -3 -11 -3 -10 2 4 22
-3 24 -23 7 -14 -12 -18 -13 -10 -3 6 9 9 18 6 22 -3 3 1 4 10 3 9 -1 21 -7
27 -13z m70 4 c-1 -12 -15 -9 -19 4 -3 6 1 10 8 8 6 -3 11 -8 11 -12z m79 -1
c0 -6 5 -5 12 2 15 15 28 15 28 1 0 -5 -4 -8 -9 -4 -5 3 -12 1 -16 -4 -3 -6
-15 -7 -28 -2 -12 4 -28 6 -34 4 -7 -3 -13 -1 -13 4 0 5 14 9 30 9 17 0 30 -4
30 -10z m82 3 c2 -2 1 -3 -1 -2 -2 2 -9 -2 -16 -7 -8 -7 -12 -5 -12 4 0 12 22
16 29 5z m110 4 c-6 -3 -9 -10 -5 -16 4 -7 0 -7 -9 1 -14 11 -18 10 -27 -5 -6
-10 -11 -13 -11 -7 0 16 18 30 42 31 13 0 17 -1 10 -4z m215 -15 c2 -17 0 -19
-7 -8 -5 8 -6 18 -4 22 8 12 10 10 11 -14z m27 6 c3 -8 2 -12 -4 -9 -6 3 -10
10 -10 16 0 14 7 11 14 -7z m40 5 c-2 -4 1 -9 8 -11 7 -3 4 -7 -7 -12 -11 -4
-16 -4 -12 0 4 4 -1 13 -11 20 -16 12 -15 13 5 11 12 0 20 -4 17 -8z m249 -3
c3 -6 -6 -11 -18 -11 -12 0 -21 5 -18 11 2 6 10 11 18 11 8 0 16 -5 18 -11z
m280 1 c-3 -4 -10 -6 -16 -4 -7 2 -19 -2 -28 -9 -13 -12 -18 -12 -32 4 -15 17
-14 18 32 17 27 0 47 -4 44 -8z m187 1 c0 -4 -4 -8 -9 -8 -6 0 -12 4 -15 8 -3
5 1 9 9 9 8 0 15 -4 15 -9z m55 3 c-3 -2 1 -11 7 -20 8 -10 4 -9 -10 3 -22 19
-22 19 -22 0 0 -16 -2 -17 -10 -4 -14 22 -12 26 15 26 13 0 22 -2 20 -5z m201
-13 c15 -18 16 -20 2 -9 -10 7 -25 10 -34 7 -14 -5 -15 -4 -4 9 16 19 13 19
36 -7z m134 2 c-12 -22 -21 -26 -17 -7 2 10 17 26 25 27 1 0 -2 -9 -8 -20z
m-2831 -11 c-16 -10 -23 -4 -14 10 3 6 11 8 17 5 6 -4 5 -9 -3 -15z m2309 -4
c-3 -3 -9 2 -12 12 -6 14 -5 15 5 6 7 -7 10 -15 7 -18z m427 15 c3 -6 -1 -7
-9 -4 -18 7 -21 14 -7 14 6 0 13 -4 16 -10z m215 0 c0 -5 -2 -10 -4 -10 -3 0
-8 5 -11 10 -3 6 -1 10 4 10 6 0 11 -4 11 -10z m226 -2 c4 -7 3 -8 -4 -4 -7 4
-12 2 -12 -5 0 -7 -3 -10 -6 -6 -6 5 3 27 11 27 2 0 7 -5 11 -12z m899 3 c3
-5 2 -12 -3 -15 -5 -3 -9 1 -9 9 0 17 3 19 12 6z m62 -13 c-3 -8 -6 -5 -6 6
-1 11 2 17 5 13 3 -3 4 -12 1 -19z m320 7 c0 -8 -4 -12 -9 -9 -5 3 -6 10 -3
15 9 13 12 11 12 -6z m-3737 1 c0 -2 -7 -7 -16 -10 -8 -3 -12 -2 -9 4 6 10 25
14 25 6z m297 -2 c-3 -3 -12 -4 -19 -1 -8 3 -5 6 6 6 11 1 17 -2 13 -5z m453
2 c0 -3 -4 -8 -10 -11 -5 -3 -10 -1 -10 4 0 6 5 11 10 11 6 0 10 -2 10 -4z
m810 0 c0 -2 -7 -7 -16 -10 -8 -3 -12 -2 -9 4 6 10 25 14 25 6z m-3697 -281
c-3 -9 -8 -14 -10 -11 -3 3 -2 9 2 15 9 16 15 13 8 -4z m8388 -82 c13 -16 12
-17 -3 -4 -10 7 -18 15 -18 17 0 8 8 3 21 -13z m-8651 -98 c0 -2 -10 -9 -22
-15 -22 -11 -22 -10 -4 4 21 17 26 19 26 11z m9710 -1599 c0 -3 -4 -8 -10 -11
-5 -3 -10 -1 -10 4 0 6 5 11 10 11 6 0 10 -2 10 -4z m-10620 -80 c0 -3 -4 -8
-10 -11 -5 -3 -10 -1 -10 4 0 6 5 11 10 11 6 0 10 -2 10 -4z m-7 -189 c3 -8 0
-14 -7 -14 -7 0 -13 6 -13 14 0 7 4 13 8 13 4 0 9 -6 12 -13z m-7 -376 c-4 -5
0 -11 6 -14 7 -3 3 -4 -9 -4 -17 1 -19 4 -11 14 12 15 22 18 14 4z m4 -41 c13
-8 12 -10 -4 -10 -14 0 -16 -3 -7 -13 8 -10 7 -14 -2 -14 -7 0 -13 11 -13 24
0 25 4 27 26 13z m-10 -54 c0 -3 -4 -8 -10 -11 -5 -3 -10 -1 -10 4 0 6 5 11
10 11 6 0 10 -2 10 -4z m10 -51 c-7 -8 -17 -15 -23 -15 -6 0 -2 7 9 15 25 19
30 19 14 0z m-13 -39 c-3 -7 -1 -18 4 -23 6 -6 5 -10 -4 -10 -7 0 -13 11 -13
24 0 13 4 23 9 23 5 0 7 -6 4 -14z m16 -133 c-7 -2 -13 -14 -14 -26 0 -21 -1
-21 -8 -2 -8 20 3 35 24 34 6 0 4 -3 -2 -6z m1 -58 c-7 -18 -20 -19 -30 -3 -4
6 -3 8 4 4 6 -3 13 -2 17 4 9 15 15 12 9 -5z m-12 -39 c-4 -6 -7 -14 -7 -18 0
-19 -11 -14 -11 6 0 12 6 23 13 23 6 0 9 -5 5 -11z m13 -46 c4 -6 1 -9 -6 -8
-15 3 -19 -24 -6 -33 5 -3 2 -9 -6 -12 -15 -6 -18 28 -4 51 10 15 14 15 22 2z
m1 -102 c4 -7 3 -8 -4 -4 -8 5 -12 -1 -13 -16 0 -22 -1 -22 -8 -3 -5 12 -4 23
3 27 14 10 14 10 22 -4z m-19 -113 c0 -8 -4 -12 -9 -9 -5 3 -6 10 -3 15 9 13
12 11 12 -6z m8 -34 c3 -5 0 -13 -6 -17 -7 -4 -9 -3 -5 4 3 5 0 13 -6 15 -9 4
-10 6 -1 6 6 1 14 -3 18 -8z m5 -106 c0 -2 -6 -5 -13 -8 -8 -3 -14 1 -14 8 0
7 6 11 14 8 7 -3 13 -6 13 -8z m-7 -27 c-6 -7 -9 -21 -8 -30 2 -10 -1 -18 -6
-18 -5 0 -8 8 -6 18 3 20 16 42 24 42 3 0 1 -6 -4 -12z m10 -73 c-3 -9 -8 -14
-10 -11 -3 3 -2 9 2 15 9 16 15 13 8 -4z m-19 -47 c-5 -8 -2 -9 9 -5 23 9 21
0 -2 -13 -16 -8 -19 -7 -16 8 5 23 4 22 11 22 3 0 2 -5 -2 -12z m9 -40 c-6 -7
-9 -21 -8 -30 2 -10 -1 -18 -6 -18 -5 0 -8 8 -6 18 3 20 16 42 24 42 3 0 1 -6
-4 -12z m10 -73 c-3 -9 -8 -14 -10 -11 -3 3 -2 9 2 15 9 16 15 13 8 -4z m-9
-46 c-18 -20 -18 -22 -2 -33 10 -7 15 -16 11 -19 -3 -4 -13 2 -21 14 -12 18
-12 22 4 40 9 10 19 19 22 19 3 0 -3 -9 -14 -21z m-10 -65 c3 -8 2 -12 -4 -9
-6 3 -10 10 -10 16 0 14 7 11 14 -7z m2 -33 c-4 -5 -1 -12 4 -14 6 -3 5 -4 -2
-3 -15 3 -23 26 -8 26 6 0 9 -4 6 -9z m14 -37 c0 -8 -19 -13 -24 -6 -3 5 1 9
9 9 8 0 15 -2 15 -3z m-13 -43 c0 -11 -5 -18 -9 -15 -4 3 -5 11 -1 19 7 21 12
19 10 -4z m7 -79 c3 -5 -1 -9 -9 -9 -8 0 -12 4 -9 9 3 4 7 8 9 8 2 0 6 -4 9
-8z m6 -97 c-7 -8 -17 -15 -23 -15 -6 0 -2 7 9 15 25 19 30 19 14 0z m-10
-265 c0 -5 -2 -10 -4 -10 -3 0 -8 5 -11 10 -3 6 -1 10 4 10 6 0 11 -4 11 -10z
m4 -38 c3 -5 -1 -9 -9 -9 -8 0 -12 4 -9 9 3 4 7 8 9 8 2 0 6 -4 9 -8z m16 -56
c0 -2 -9 -6 -20 -9 -11 -3 -18 -1 -14 4 5 9 34 13 34 5z m-16 -104 c3 -5 -1
-9 -9 -9 -8 0 -12 4 -9 9 3 4 7 8 9 8 2 0 6 -4 9 -8z m5 -186 c9 -11 9 -16 -1
-22 -7 -4 -10 -4 -6 1 4 4 3 14 -3 22 -6 7 -9 13 -6 13 2 0 10 -6 16 -14z m6
-245 c3 -5 2 -12 -3 -15 -5 -3 -9 1 -9 9 0 17 3 19 12 6z m-15 -51 c0 -5 -2
-10 -4 -10 -3 0 -8 5 -11 10 -3 6 -1 10 4 10 6 0 11 -4 11 -10z m10 -36 c0 -8
-19 -13 -24 -6 -3 5 1 9 9 9 8 0 15 -2 15 -3z m-1 -148 c9 -11 9 -16 -1 -22
-7 -4 -10 -4 -6 1 4 4 3 14 -3 22 -6 7 -9 13 -6 13 2 0 10 -6 16 -14z m-3 -98
c4 -6 3 -8 -4 -4 -5 3 -13 0 -15 -6 -3 -8 -6 -6 -6 5 -1 19 14 23 25 5z m-6
-38 c0 -5 -5 -10 -11 -10 -5 0 -7 5 -4 10 3 6 8 10 11 10 2 0 4 -4 4 -10z m6
-102 c4 -7 3 -8 -4 -4 -8 5 -12 -1 -13 -16 0 -13 -3 -17 -6 -10 -5 13 2 42 11
42 3 0 8 -5 12 -12z m-6 -58 c0 -5 -5 -10 -11 -10 -5 0 -7 5 -4 10 3 6 8 10
11 10 2 0 4 -4 4 -10z m-3 -110 c-1 -22 -17 -28 -17 -7 0 12 9 27 16 27 2 0 2
-9 1 -20z m16 -325 c-3 -9 -8 -14 -10 -11 -3 3 -2 9 2 15 9 16 15 13 8 -4z
m-16 -80 c0 -8 -4 -12 -9 -9 -4 3 -8 9 -8 15 0 5 4 9 8 9 5 0 9 -7 9 -15z m3
-165 c0 -5 -4 -10 -10 -10 -5 0 -10 5 -10 10 0 6 5 10 10 10 6 0 10 -4 10 -10z
m15 -40 c3 -5 1 -10 -4 -10 -6 0 -11 5 -11 10 0 6 2 10 4 10 3 0 8 -4 11 -10z
m-21 -26 c3 -8 2 -12 -4 -9 -6 3 -10 10 -10 16 0 14 7 11 14 -7z m6 -34 c0 -5
-5 -10 -11 -10 -5 0 -7 5 -4 10 3 6 8 10 11 10 2 0 4 -4 4 -10z m4 -62 c-3 -4
-9 -8 -15 -8 -5 0 -9 4 -9 8 0 5 7 9 15 9 8 0 12 -4 9 -9z m6 -94 c0 -8 -19
-13 -24 -6 -3 5 1 9 9 9 8 0 15 -2 15 -3z m-6 -146 c-3 -4 -9 -8 -15 -8 -5 0
-9 4 -9 8 0 5 7 9 15 9 8 0 12 -4 9 -9z m-7 -83 c0 -8 -4 -12 -9 -9 -4 3 -8 9
-8 15 0 5 4 9 8 9 5 0 9 -7 9 -15z m-3 -201 c3 -8 2 -12 -4 -9 -6 3 -10 10
-10 16 0 14 7 11 14 -7z m3 -109 c0 -8 -4 -12 -9 -9 -4 3 -8 9 -8 15 0 5 4 9
8 9 5 0 9 -7 9 -15z m0 -170 c0 -8 -4 -12 -9 -9 -5 3 -6 10 -3 15 9 13 12 11
12 -6z m-1 -34 c-4 -5 -1 -12 4 -14 6 -3 5 -4 -2 -3 -15 3 -23 26 -8 26 6 0 9
-4 6 -9z m14 -37 c0 -8 -19 -13 -24 -6 -3 5 1 9 9 9 8 0 15 -2 15 -3z m-1 -57
c8 -10 7 -14 -4 -14 -8 0 -12 4 -9 8 2 4 -2 10 -8 12 -8 4 -9 6 -2 6 6 1 17
-5 23 -12z m-4 -45 c-3 -3 -11 0 -18 7 -9 10 -8 11 6 5 10 -3 15 -9 12 -12z
m5 -61 c0 -4 -6 -8 -13 -8 -8 0 -14 6 -14 13 0 7 6 10 14 7 7 -3 13 -8 13 -12z
m-13 -36 c0 -8 -4 -15 -9 -15 -10 0 -11 14 -1 23 9 10 10 9 10 -8z m14 -63
c-7 -2 -18 1 -23 6 -8 8 -4 9 13 5 13 -4 18 -8 10 -11z m-16 -51 c-4 -13 0
-23 12 -30 17 -9 16 -10 -3 -8 -15 1 -20 8 -20 29 0 15 4 28 8 28 5 0 7 -9 3
-19z m7 -70 c-5 -3 -8 -14 -6 -23 1 -10 -1 -20 -5 -22 -4 -3 -7 10 -7 29 0 24
4 31 14 27 8 -2 9 -8 4 -11z m5 -62 c-15 -9 -16 -13 -5 -27 12 -15 11 -16 -5
-3 -13 10 -15 17 -6 27 6 8 17 14 23 14 6 0 3 -5 -7 -11z m-10 -104 c2 -13 0
-26 -4 -28 -5 -3 -9 10 -9 29 0 37 8 37 13 -1z m13 -95 c-12 -23 -16 -24 -26
-8 -4 6 -3 8 3 5 6 -4 13 0 17 8 3 8 8 15 11 15 3 0 1 -9 -5 -20z m-10 -34 c0
-3 -4 -8 -10 -11 -5 -3 -10 -1 -10 4 0 6 5 11 10 11 6 0 10 -2 10 -4z m-2 -36
c-7 -10 -14 -17 -17 -15 -4 4 18 35 25 35 2 0 -1 -9 -8 -20z m22 -24 c0 -3 -4
-8 -10 -11 -5 -3 -10 -1 -10 4 0 6 5 11 10 11 6 0 10 -2 10 -4z m-6 -59 c4 4
4 0 0 -10 -6 -17 -7 -17 -20 0 -7 10 -13 23 -13 28 0 6 6 2 13 -7 7 -10 16
-15 20 -11z m-8 -51 c12 -13 12 -15 -4 -13 -10 0 -19 7 -19 14 0 17 5 16 23
-1z m-1 -40 c12 -12 12 -15 -2 -20 -14 -6 -14 -9 3 -29 12 -13 13 -17 3 -9 -9
6 -18 10 -20 7 -3 -2 -5 11 -5 30 0 39 2 41 21 21z m-10 -75 c-3 -6 3 -14 12
-20 10 -6 13 -11 7 -11 -7 0 -15 -7 -18 -16 -5 -12 -2 -15 11 -10 17 6 17 5 1
-7 -16 -13 -16 -15 0 -32 13 -15 13 -16 1 -7 -9 6 -18 10 -20 8 -2 -2 -4 20
-5 50 0 30 4 54 9 54 4 0 6 -4 2 -9z m5 -115 c0 -3 -4 -8 -10 -11 -5 -3 -10
-1 -10 4 0 6 5 11 10 11 6 0 10 -2 10 -4z m18 -30 c-2 -1 -10 -7 -19 -14 -13
-9 -16 -9 -16 3 0 8 4 12 9 9 4 -3 8 0 8 6 0 6 5 8 11 5 6 -4 9 -8 7 -9z m-14
-155 c17 -19 17 -19 0 -17 -9 2 -18 10 -20 19 -3 21 -1 21 20 -2z m6 -41 c13
-8 13 -10 -2 -10 -9 0 -20 5 -23 10 -8 13 5 13 25 0z m-5 -120 c1 -10 -2 -17
-6 -14 -4 2 -7 13 -6 24 2 23 10 17 12 -10z m12 -36 c-3 -3 -12 -4 -19 -1 -8
3 -5 6 6 6 11 1 17 -2 13 -5z m35 -341 c-6 -2 -9 -10 -6 -15 4 -7 2 -8 -5 -4
-13 9 -5 26 12 25 9 0 8 -2 -1 -6z m28 -193 c0 -5 -2 -10 -4 -10 -3 0 -8 5
-11 10 -3 6 -1 10 4 10 6 0 11 -4 11 -10z m147 -395 c0 -8 -4 -12 -9 -9 -5 3
-6 10 -3 15 9 13 12 11 12 -6z m243 -395 c0 -5 -2 -10 -4 -10 -3 0 -8 5 -11
10 -3 6 -1 10 4 10 6 0 11 -4 11 -10z m150 -146 c0 -8 -19 -13 -24 -6 -3 5 1
9 9 9 8 0 15 -2 15 -3z m192 -208 c7 4 8 2 4 -5 -9 -14 -36 3 -36 23 0 6 5 3
11 -7 6 -9 15 -14 21 -11z m212 -192 c3 -8 2 -12 -4 -9 -6 3 -10 10 -10 16 0
14 7 11 14 -7z m416 -218 c0 -3 -4 -8 -10 -11 -5 -3 -10 -1 -10 4 0 6 5 11 10
11 6 0 10 -2 10 -4z m7401 -129 c-10 -9 -11 -8 -5 6 3 10 9 15 12 12 3 -3 0
-11 -7 -18z m-6848 -12 c-3 -9 -8 -14 -10 -11 -3 3 -2 9 2 15 9 16 15 13 8 -4z
m6675 -20 c-3 -3 -9 2 -12 12 -6 14 -5 15 5 6 7 -7 10 -15 7 -18z"/>
<path d="M5026 11048 c3 -5 10 -6 15 -3 13 9 11 12 -6 12 -8 0 -12 -4 -9 -9z"/>
<path d="M3350 11069 c0 -15 18 -19 23 -6 3 8 -1 14 -9 14 -8 0 -14 -4 -14 -8z"/>
<path d="M4631 11059 c5 -11 15 -17 20 -13 14 9 6 27 -14 30 -14 2 -15 -1 -6
-17z"/>
<path d="M4910 11069 c0 -8 56 -6 64 2 3 3 -10 5 -29 5 -19 0 -35 -3 -35 -7z"/>
<path d="M5390 11070 c0 -5 5 -10 11 -10 5 0 7 5 4 10 -3 6 -8 10 -11 10 -2 0
-4 -4 -4 -10z"/>
<path d="M5447 11066 c-4 -10 -1 -13 8 -9 8 3 12 9 9 14 -7 12 -11 11 -17 -5z"/>
<path d="M5586 11068 c3 -4 9 -8 15 -8 5 0 9 4 9 8 0 5 -7 9 -15 9 -8 0 -12
-4 -9 -9z"/>
<path d="M5810 11070 c0 -5 5 -10 11 -10 5 0 7 5 4 10 -3 6 -8 10 -11 10 -2 0
-4 -4 -4 -10z"/>
<path d="M6203 11066 c0 -17 30 -14 33 3 2 7 0 7 -3 1 -3 -7 -9 -8 -17 -1 -9
8 -13 7 -13 -3z"/>
<path d="M6262 11071 c-11 -7 -11 -9 0 -14 9 -3 15 1 15 9 0 8 -1 14 -1 14 -1
0 -7 -4 -14 -9z"/>
<path d="M6290 11071 c0 -5 5 -13 10 -16 6 -3 10 -2 10 4 0 5 -4 13 -10 16 -5
3 -10 2 -10 -4z"/>
<path d="M6346 11063 c-6 -14 -5 -15 5 -6 7 7 10 15 7 18 -3 3 -9 -2 -12 -12z"/>
<path d="M6382 11071 c-11 -7 -11 -9 0 -14 9 -3 15 1 15 9 0 8 -1 14 -1 14 -1
0 -7 -4 -14 -9z"/>
<path d="M6410 11071 c0 -5 5 -13 10 -16 6 -3 10 -2 10 4 0 5 -4 13 -10 16 -5
3 -10 2 -10 -4z"/>
<path d="M6468 11069 c-4 -11 1 -15 22 -14 18 0 26 4 23 13 -4 9 -9 10 -18 2
-9 -8 -14 -7 -17 2 -3 8 -6 8 -10 -3z"/>
<path d="M7113 11065 c-3 -9 -3 -18 -1 -21 3 -3 8 4 11 16 6 23 -1 27 -10 5z"/>
<path d="M7224 11068 c3 -15 26 -23 26 -8 0 6 -4 9 -9 6 -5 -4 -12 -1 -14 4
-3 6 -4 5 -3 -2z"/>
<path d="M7356 11067 c3 -10 9 -15 12 -12 3 3 0 11 -7 18 -10 9 -11 8 -5 -6z"/>
<path d="M7460 11071 c0 -6 4 -13 10 -16 6 -3 7 1 4 9 -7 18 -14 21 -14 7z"/>
<path d="M7656 11067 c3 -10 9 -15 12 -12 3 3 0 11 -7 18 -10 9 -11 8 -5 -6z"/>
<path d="M3320 11055 c-8 -9 -8 -15 -2 -15 12 0 26 19 19 26 -2 2 -10 -2 -17
-11z"/>
<path d="M7045 11061 c-6 -11 9 -23 19 -14 9 9 7 23 -3 23 -6 0 -12 -4 -16 -9z"/>
<path d="M7505 11053 c-3 -10 0 -11 15 -3 13 7 21 7 25 0 8 -13 25 -3 25 13 0
7 -4 6 -10 -3 -6 -9 -10 -10 -10 -3 0 16 -38 12 -45 -4z"/>
<path d="M7741 11054 c0 -11 3 -14 6 -6 3 7 2 16 -1 19 -3 4 -6 -2 -5 -13z"/>
<path d="M7810 11060 c0 -4 7 -7 15 -6 23 3 26 12 5 13 -11 1 -20 -2 -20 -7z"/>
<path d="M7990 11066 c0 -2 7 -7 16 -10 8 -3 12 -2 9 4 -6 10 -25 14 -25 6z"/>
<path d="M8250 11061 c0 -6 4 -12 8 -15 5 -3 9 1 9 9 0 8 -4 15 -9 15 -4 0 -8
-4 -8 -9z"/>
<path d="M9490 10870 c6 -11 13 -20 16 -20 2 0 0 9 -6 20 -6 11 -13 20 -16 20
-2 0 0 -9 6 -20z"/>
<path d="M10857 9069 c7 -7 15 -10 18 -7 3 3 -2 9 -12 12 -14 6 -15 5 -6 -5z"/>
<path d="M205 8819 c-4 -6 -5 -12 -2 -15 2 -3 7 2 10 11 7 17 1 20 -8 4z"/>
<path d="M205 8620 c3 -5 8 -10 11 -10 2 0 4 5 4 10 0 6 -5 10 -11 10 -5 0 -7
-4 -4 -10z"/>
<path d="M200 4320 c0 -5 5 -10 11 -10 5 0 7 5 4 10 -3 6 -8 10 -11 10 -2 0
-4 -4 -4 -10z"/>
<path d="M10850 2106 c0 -2 7 -7 16 -10 8 -3 12 -2 9 4 -6 10 -25 14 -25 6z"/>
<path d="M330 1576 c0 -2 7 -7 16 -10 8 -3 12 -2 9 4 -6 10 -25 14 -25 6z"/>
<path d="M1130 476 c0 -2 8 -10 18 -17 15 -13 16 -12 3 4 -13 16 -21 21 -21
13z"/>
<path d="M1616 163 c-6 -14 -5 -15 5 -6 7 7 10 15 7 18 -3 3 -9 -2 -12 -12z"/>
</g>
</svg>
